<svg width="192" height="26" viewBox="0 0 192 26" fill="none" xmlns="http://www.w3.org/2000/svg">
<path d="M23.2028 7.28056L12.5655 1.44618L1.92822 7.28056M23.2028 7.28056V18.9493L12.5655 24.7837M23.2028 7.28056L15.4314 11.4772M12.5655 24.7837L1.92822 18.9493V7.28056M12.5655 24.7837V16.0833M1.92822 7.28056L9.80975 11.4772" stroke="white" stroke-width="2.04715"/>
<circle cx="9.91287" cy="11.6819" r="1.63772" fill="white"/>
<circle cx="15.2351" cy="11.6819" r="1.63772" fill="white"/>
<circle cx="12.5728" cy="15.9822" r="1.63772" fill="white"/>
<path d="M37.5811 21.277C36.5272 21.277 35.6017 21.0744 34.8045 20.669C34.0073 20.2502 33.3926 19.6692 32.9602 18.9261C32.5279 18.183 32.3117 17.325 32.3117 16.3522V11.6705C32.3117 10.6977 32.5279 9.83972 32.9602 9.0966C33.3926 8.35348 34.0073 7.77925 34.8045 7.37391C35.6017 6.96857 36.5272 6.7659 37.5811 6.7659C38.6215 6.7659 39.5335 6.96181 40.3171 7.35364C41.1143 7.73196 41.7291 8.27917 42.1614 8.99527C42.6073 9.69785 42.8302 10.5153 42.8302 11.4476C42.8302 11.5692 42.7492 11.6435 42.587 11.6705L40.2158 11.8124H40.1753C40.0401 11.8124 39.9726 11.7381 39.9726 11.5894C39.9726 10.8733 39.7497 10.2991 39.3038 9.86675C38.8714 9.43438 38.2972 9.2182 37.5811 9.2182C36.8515 9.2182 36.2637 9.43438 35.8179 9.86675C35.3855 10.2991 35.1693 10.8733 35.1693 11.5894V16.4738C35.1693 17.1764 35.3855 17.7438 35.8179 18.1762C36.2637 18.6086 36.8515 18.8247 37.5811 18.8247C38.2972 18.8247 38.8714 18.6086 39.3038 18.1762C39.7497 17.7438 39.9726 17.1764 39.9726 16.4738C39.9726 16.3252 40.0537 16.2508 40.2158 16.2508L42.587 16.3522C42.6546 16.3522 42.7086 16.3724 42.7492 16.413C42.8032 16.4535 42.8302 16.5008 42.8302 16.5548C42.8302 17.4871 42.6073 18.3113 42.1614 19.0274C41.7291 19.7435 41.1143 20.2975 40.3171 20.6893C39.5335 21.0811 38.6215 21.277 37.5811 21.277ZM44.7637 21.1149C44.6961 21.1149 44.6353 21.0946 44.5813 21.0541C44.5407 21.0001 44.5205 20.9393 44.5205 20.8717V7.17124C44.5205 7.10368 44.5407 7.04964 44.5813 7.0091C44.6353 6.95506 44.6961 6.92803 44.7637 6.92803H47.1349C47.2025 6.92803 47.2565 6.95506 47.297 7.0091C47.3511 7.04964 47.3781 7.10368 47.3781 7.17124V18.5613C47.3781 18.6288 47.4119 18.6626 47.4794 18.6626H54.1067C54.1743 18.6626 54.2283 18.6896 54.2689 18.7437C54.3229 18.7842 54.3499 18.8383 54.3499 18.9058V20.8717C54.3499 20.9393 54.3229 21.0001 54.2689 21.0541C54.2283 21.0946 54.1743 21.1149 54.1067 21.1149H44.7637ZM60.861 21.277C59.8207 21.277 58.9019 21.0744 58.1047 20.669C57.3211 20.2637 56.7063 19.6962 56.2604 18.9666C55.8281 18.2235 55.6119 17.3723 55.6119 16.413V7.17124C55.6119 7.10368 55.6322 7.04964 55.6727 7.0091C55.7267 6.95506 55.7875 6.92803 55.8551 6.92803H58.2263C58.2939 6.92803 58.3479 6.95506 58.3885 7.0091C58.4425 7.04964 58.4695 7.10368 58.4695 7.17124V16.4332C58.4695 17.1493 58.6857 17.7303 59.1181 18.1762C59.5639 18.6086 60.1449 18.8247 60.861 18.8247C61.5771 18.8247 62.1514 18.6086 62.5837 18.1762C63.0296 17.7303 63.2525 17.1493 63.2525 16.4332V7.17124C63.2525 7.10368 63.2728 7.04964 63.3133 7.0091C63.3674 6.95506 63.4282 6.92803 63.4957 6.92803H65.867C65.9345 6.92803 65.9886 6.95506 66.0291 7.0091C66.0832 7.04964 66.1102 7.10368 66.1102 7.17124V16.413C66.1102 17.3723 65.8872 18.2235 65.4414 18.9666C65.009 19.6962 64.3942 20.2637 63.5971 20.669C62.8134 21.0744 61.9014 21.277 60.861 21.277ZM72.918 21.277C71.8371 21.277 70.8913 21.1082 70.0806 20.7704C69.2699 20.4191 68.6416 19.9259 68.1958 19.2909C67.7634 18.6423 67.5472 17.8925 67.5472 17.0413V16.5954C67.5472 16.5278 67.5675 16.4738 67.608 16.4332C67.6621 16.3792 67.7229 16.3522 67.7904 16.3522H70.1009C70.1684 16.3522 70.2225 16.3792 70.263 16.4332C70.317 16.4738 70.3441 16.5278 70.3441 16.5954V16.8994C70.3441 17.4398 70.594 17.8992 71.094 18.2775C71.5939 18.6423 72.2694 18.8247 73.1206 18.8247C73.8367 18.8247 74.3704 18.6761 74.7217 18.3789C75.073 18.0681 75.2487 17.6898 75.2487 17.2439C75.2487 16.9197 75.1406 16.6494 74.9244 16.4332C74.7082 16.2036 74.411 16.0076 74.0327 15.8455C73.6679 15.6699 73.0801 15.4334 72.2694 15.1362C71.3642 14.8254 70.594 14.5079 69.959 14.1836C69.3375 13.8593 68.8105 13.4202 68.3782 12.8663C67.9593 12.2988 67.7499 11.6029 67.7499 10.7788C67.7499 9.96808 67.9593 9.25874 68.3782 8.65073C68.797 8.04272 69.378 7.57658 70.1211 7.25231C70.8643 6.92804 71.7222 6.7659 72.695 6.7659C73.7219 6.7659 74.6339 6.9483 75.4311 7.31311C76.2418 7.67791 76.87 8.19134 77.3159 8.8534C77.7753 9.50194 78.005 10.2586 78.005 11.1233V11.4273C78.005 11.4949 77.978 11.5557 77.9239 11.6097C77.8834 11.6502 77.8293 11.6705 77.7618 11.6705H75.4311C75.3635 11.6705 75.3027 11.6502 75.2487 11.6097C75.2081 11.5557 75.1879 11.4949 75.1879 11.4273V11.2652C75.1879 10.6977 74.9514 10.218 74.4785 9.82621C74.0191 9.42087 73.3841 9.2182 72.5734 9.2182C71.9384 9.2182 71.4385 9.35332 71.0737 9.62354C70.7224 9.89377 70.5467 10.2653 70.5467 10.7382C70.5467 11.076 70.6481 11.3597 70.8507 11.5894C71.0669 11.8191 71.3777 12.0286 71.783 12.2177C72.2019 12.3934 72.8437 12.6366 73.7084 12.9473C74.6677 13.2986 75.4176 13.6094 75.958 13.8796C76.512 14.1498 77.0051 14.5552 77.4375 15.0956C77.8834 15.6226 78.1063 16.3116 78.1063 17.1629C78.1063 18.4329 77.6402 19.4395 76.7079 20.1826C75.7756 20.9122 74.5123 21.277 72.918 21.277ZM89.3325 6.92803C89.4 6.92803 89.4541 6.95506 89.4946 7.0091C89.5487 7.04964 89.5757 7.10368 89.5757 7.17124V9.1574C89.5757 9.22496 89.5487 9.28576 89.4946 9.3398C89.4541 9.38034 89.4 9.40061 89.3325 9.40061H85.7047C85.6371 9.40061 85.6034 9.43438 85.6034 9.50194V20.8717C85.6034 20.9393 85.5763 21.0001 85.5223 21.0541C85.4818 21.0946 85.4277 21.1149 85.3602 21.1149H82.9889C82.9214 21.1149 82.8606 21.0946 82.8065 21.0541C82.766 21.0001 82.7457 20.9393 82.7457 20.8717V9.50194C82.7457 9.43438 82.7119 9.40061 82.6444 9.40061H79.1179C79.0504 9.40061 78.9896 9.38034 78.9355 9.3398C78.895 9.28576 78.8747 9.22496 78.8747 9.1574V7.17124C78.8747 7.10368 78.895 7.04964 78.9355 7.0091C78.9896 6.95506 79.0504 6.92803 79.1179 6.92803H89.3325ZM100.843 9.13713C100.843 9.20469 100.816 9.26549 100.762 9.31954C100.722 9.36007 100.668 9.38034 100.6 9.38034H93.9526C93.885 9.38034 93.8512 9.41412 93.8512 9.48167V12.6231C93.8512 12.6906 93.885 12.7244 93.9526 12.7244H98.31C98.3775 12.7244 98.4316 12.7514 98.4721 12.8055C98.5261 12.846 98.5532 12.9 98.5532 12.9676V14.9335C98.5532 15.001 98.5261 15.0618 98.4721 15.1159C98.4316 15.1564 98.3775 15.1767 98.31 15.1767H93.9526C93.885 15.1767 93.8512 15.2105 93.8512 15.278V18.5613C93.8512 18.6288 93.885 18.6626 93.9526 18.6626H100.6C100.668 18.6626 100.722 18.6896 100.762 18.7437C100.816 18.7842 100.843 18.8383 100.843 18.9058V20.8717C100.843 20.9393 100.816 21.0001 100.762 21.0541C100.722 21.0946 100.668 21.1149 100.6 21.1149H91.2368C91.1692 21.1149 91.1084 21.0946 91.0544 21.0541C91.0138 21.0001 90.9936 20.9393 90.9936 20.8717V7.17124C90.9936 7.10368 91.0138 7.04964 91.0544 7.0091C91.1084 6.95506 91.1692 6.92803 91.2368 6.92803H100.6C100.668 6.92803 100.722 6.95506 100.762 7.0091C100.816 7.04964 100.843 7.10368 100.843 7.17124V9.13713ZM110.206 21.1149C110.071 21.1149 109.977 21.0541 109.923 20.9325L107.389 15.3186C107.362 15.2645 107.322 15.2375 107.268 15.2375H105.383C105.315 15.2375 105.281 15.2713 105.281 15.3388V20.8717C105.281 20.9393 105.254 21.0001 105.2 21.0541C105.16 21.0946 105.106 21.1149 105.038 21.1149H102.667C102.599 21.1149 102.539 21.0946 102.485 21.0541C102.444 21.0001 102.424 20.9393 102.424 20.8717V7.17124C102.424 7.10368 102.444 7.04964 102.485 7.0091C102.539 6.95506 102.599 6.92803 102.667 6.92803H108.463C109.328 6.92803 110.085 7.10368 110.733 7.45498C111.395 7.80627 111.902 8.30619 112.253 8.95473C112.618 9.60327 112.801 10.3532 112.801 11.2044C112.801 12.1231 112.571 12.9135 112.111 13.5756C111.652 14.2241 111.01 14.6835 110.186 14.9538C110.119 14.9808 110.098 15.0281 110.125 15.0956L112.882 20.8312C112.909 20.8852 112.922 20.9258 112.922 20.9528C112.922 21.0609 112.848 21.1149 112.699 21.1149H110.206ZM105.383 9.38034C105.315 9.38034 105.281 9.41412 105.281 9.48167V12.9473C105.281 13.0149 105.315 13.0487 105.383 13.0487H108.038C108.605 13.0487 109.065 12.8798 109.416 12.542C109.781 12.2042 109.963 11.7651 109.963 11.2246C109.963 10.6842 109.781 10.2451 109.416 9.90728C109.065 9.55598 108.605 9.38034 108.038 9.38034H105.383ZM123.105 21.2973C122.16 21.2973 121.329 21.1149 120.612 20.7501C119.896 20.3718 119.336 19.8449 118.93 19.1693C118.539 18.4802 118.343 17.6898 118.343 16.798V11.2246C118.343 10.3464 118.539 9.5695 118.93 8.89393C119.336 8.21836 119.896 7.69818 120.612 7.33337C121.329 6.95506 122.16 6.7659 123.105 6.7659C124.051 6.7659 124.882 6.9483 125.598 7.31311C126.314 7.67791 126.868 8.19134 127.26 8.8534C127.665 9.51545 127.868 10.2788 127.868 11.1436C127.868 11.2111 127.848 11.2652 127.807 11.3057C127.767 11.3462 127.719 11.3665 127.665 11.3665L126.632 11.4273C126.497 11.4273 126.429 11.3665 126.429 11.2449V11.1841C126.429 10.2248 126.125 9.46141 125.517 8.89393C124.909 8.31294 124.105 8.02245 123.105 8.02245C122.105 8.02245 121.302 8.31294 120.694 8.89393C120.086 9.47492 119.782 10.2383 119.782 11.1841V16.8589C119.782 17.8046 120.086 18.568 120.694 19.149C121.302 19.73 122.105 20.0205 123.105 20.0205C124.105 20.0205 124.909 19.7368 125.517 19.1693C126.125 18.5883 126.429 17.8182 126.429 16.8589V16.8183C126.429 16.6967 126.497 16.6359 126.632 16.6359L127.665 16.6967C127.801 16.6967 127.868 16.7575 127.868 16.8791C127.868 17.7574 127.665 18.5343 127.26 19.2098C126.868 19.8719 126.314 20.3853 125.598 20.7501C124.882 21.1149 124.051 21.2973 123.105 21.2973ZM139.085 21.1149C138.963 21.1149 138.882 21.0609 138.842 20.9528L138.031 18.3991C138.017 18.3586 137.99 18.3383 137.95 18.3383H131.89C131.849 18.3383 131.822 18.3586 131.809 18.3991L130.998 20.9528C130.958 21.0609 130.877 21.1149 130.755 21.1149H129.661C129.512 21.1149 129.458 21.0406 129.498 20.892L133.977 7.09017C134.018 6.98208 134.099 6.92803 134.221 6.92803H135.599C135.72 6.92803 135.801 6.98208 135.842 7.09017L140.341 20.892L140.362 20.973C140.362 21.0676 140.301 21.1149 140.179 21.1149H139.085ZM132.214 17.0615C132.201 17.0885 132.201 17.1156 132.214 17.1426C132.241 17.1561 132.268 17.1629 132.295 17.1629H137.524C137.551 17.1629 137.571 17.1561 137.585 17.1426C137.612 17.1156 137.619 17.0885 137.605 17.0615L134.971 8.7926C134.957 8.76557 134.937 8.75206 134.91 8.75206C134.883 8.75206 134.862 8.76557 134.849 8.7926L132.214 17.0615ZM147.97 6.90777C149.159 6.90777 150.112 7.27257 150.828 8.00218C151.557 8.73179 151.922 9.6911 151.922 10.8801C151.922 12.0556 151.551 13.0014 150.808 13.7175C150.078 14.4336 149.112 14.7916 147.909 14.7916H143.957C143.903 14.7916 143.876 14.8186 143.876 14.8727V20.9122C143.876 21.0474 143.809 21.1149 143.674 21.1149H142.64C142.505 21.1149 142.437 21.0474 142.437 20.9122V7.11044C142.437 6.97532 142.505 6.90777 142.64 6.90777H147.97ZM147.808 13.5959C148.605 13.5959 149.254 13.3527 149.754 12.8663C150.254 12.3663 150.504 11.711 150.504 10.9004C150.504 10.0762 150.254 9.41412 149.754 8.9142C149.254 8.41428 148.605 8.16432 147.808 8.16432H143.957C143.903 8.16432 143.876 8.19134 143.876 8.24539V13.5148C143.876 13.5688 143.903 13.5959 143.957 13.5959H147.808ZM154.37 21.1149C154.235 21.1149 154.168 21.0474 154.168 20.9122V7.1307C154.168 6.99559 154.235 6.92803 154.37 6.92803H155.404C155.539 6.92803 155.607 6.99559 155.607 7.1307V20.9122C155.607 21.0474 155.539 21.1149 155.404 21.1149H154.37ZM167.56 6.92803C167.695 6.92803 167.763 6.99559 167.763 7.1307V8.00218C167.763 8.1373 167.695 8.20485 167.56 8.20485H163.588C163.534 8.20485 163.507 8.23188 163.507 8.28592V20.9122C163.507 21.0474 163.439 21.1149 163.304 21.1149H162.27C162.135 21.1149 162.068 21.0474 162.068 20.9122V8.28592C162.068 8.23188 162.041 8.20485 161.987 8.20485H158.176C158.041 8.20485 157.974 8.1373 157.974 8.00218V7.1307C157.974 6.99559 158.041 6.92803 158.176 6.92803H167.56ZM177.423 21.1149C177.302 21.1149 177.221 21.0609 177.18 20.9528L176.369 18.3991C176.356 18.3586 176.329 18.3383 176.288 18.3383H170.229C170.188 18.3383 170.161 18.3586 170.147 18.3991L169.337 20.9528C169.296 21.0609 169.215 21.1149 169.094 21.1149H167.999C167.851 21.1149 167.797 21.0406 167.837 20.892L172.316 7.09017C172.357 6.98208 172.438 6.92803 172.559 6.92803H173.937C174.059 6.92803 174.14 6.98208 174.181 7.09017L178.68 20.892L178.7 20.973C178.7 21.0676 178.639 21.1149 178.518 21.1149H177.423ZM170.553 17.0615C170.539 17.0885 170.539 17.1156 170.553 17.1426C170.58 17.1561 170.607 17.1629 170.634 17.1629H175.863C175.89 17.1629 175.91 17.1561 175.924 17.1426C175.951 17.1156 175.957 17.0885 175.944 17.0615L173.309 8.7926C173.296 8.76557 173.275 8.75206 173.248 8.75206C173.221 8.75206 173.201 8.76557 173.188 8.7926L170.553 17.0615ZM181.12 21.1149C180.985 21.1149 180.918 21.0474 180.918 20.9122V7.1307C180.918 6.99559 180.985 6.92803 181.12 6.92803H182.154C182.289 6.92803 182.357 6.99559 182.357 7.1307V19.7773C182.357 19.8313 182.384 19.8584 182.438 19.8584H189.592C189.727 19.8584 189.795 19.9259 189.795 20.061V20.9122C189.795 21.0474 189.727 21.1149 189.592 21.1149H181.12Z" fill="white"/>
</svg>
